<svg width="60" height="48" viewBox="0 0 60 48" fill="none" xmlns="http://www.w3.org/2000/svg">
<path d="M53.3333 37.2442H6.66667C2.99 37.2442 0 39.5739 0 42.4386C0 45.3033 2.99 47.6329 6.66667 47.6329H53.3333C57.01 47.6329 60 45.3033 60 42.4386C60 39.5739 57.01 37.2442 53.3333 37.2442ZM53.3333 19.0639H6.66667C2.99 19.0639 0 21.3936 0 24.2583C0 27.123 2.99 29.4526 6.66667 29.4526H53.3333C57.01 29.4526 60 27.123 60 24.2583C60 21.3936 57.01 19.0639 53.3333 19.0639ZM53.3333 0.883606H6.66667C2.99 0.883606 0 3.21328 0 6.07798C0 8.94267 2.99 11.2723 6.66667 11.2723H53.3333C57.01 11.2723 60 8.94267 60 6.07798C60 3.21328 57.01 0.883606 53.3333 0.883606Z" fill="#125806"/>
</svg>
